<?xml version="1.0" standalone="no"?>
<!DOCTYPE svg PUBLIC "-//W3C//DTD SVG 20010904//EN"
 "http://www.w3.org/TR/2001/REC-SVG-20010904/DTD/svg10.dtd">
<svg version="1.0" xmlns="http://www.w3.org/2000/svg"
 width="260.000000pt" height="260.000000pt" viewBox="0 0 260.000000 260.000000"
 preserveAspectRatio="xMidYMid meet">
<metadata>
Created by potrace 1.14, written by Peter Selinger 2001-2017
</metadata>
<g transform="translate(0.000000,260.000000) scale(0.100000,-0.100000)"
fill="#000000" stroke="none">
<path d="M376 2589 c-166 -39 -326 -201 -365 -369 -14 -62 -14 -1778 0 -1840
37 -161 163 -298 328 -356 l66 -24 895 0 895 0 66 24 c155 55 260 160 316 316
l23 65 0 885 c0 575 -4 901 -11 930 -39 172 -197 330 -369 369 -57 13 -1788
13 -1844 0z m1199 -398 c212 -44 359 -175 410 -367 19 -73 22 -252 5 -325 -34
-146 -128 -270 -252 -332 -131 -66 -159 -70 -500 -75 l-308 -4 0 -286 c0 -260
-2 -291 -19 -329 -25 -54 -67 -76 -144 -76 -62 0 -93 15 -131 67 -21 27 -21
35 -21 841 0 807 0 814 21 842 46 62 51 63 469 63 332 0 392 -3 470 -19z"/>
<path d="M930 1651 l0 -311 228 0 c298 0 377 15 455 89 63 58 94 172 76 282
-13 79 -38 128 -89 171 -74 64 -113 72 -407 76 l-263 3 0 -310z"/>
</g>
</svg>
